<svg width="232" height="435" viewBox="0 0 232 435" fill="none" xmlns="http://www.w3.org/2000/svg">
<mask id="mask0_40001233_13985" style="mask-type:luminance" maskUnits="userSpaceOnUse" x="17" y="0" width="198" height="436">
<path d="M24.2734 0L214.854 44.052L207.725 435.002L17.1439 390.95L24.2734 0Z" fill="white"/>
</mask>
<g mask="url(#mask0_40001233_13985)">
<path d="M210.834 73.1862L203.795 60.4006L181.749 36.4536L155.282 30.9097L126.095 40.7867L104.602 59.8984L88.6521 103.456L89.7287 145.533L98.4026 169.812C98.5683 170.816 99.1505 174.204 100.06 177.306L86.0957 172.29L50.3846 177.837L31.3365 196.808L30.0112 200.682L24.2683 217.469L24.2414 217.567C24.0088 218.398 18.6014 238.117 21.6191 249.902L21.908 251.025L26.0654 252.838L26.0379 254.114L28.3029 289.965L28.3057 290.042L31.8414 316.069L31.8489 316.118L36.4991 341.802L37.3394 357.634L37.2587 362.283L21.8966 366.725L24.3792 386.979L29.0643 393.563L36.7965 394.266L50.1153 395.237L79.7481 395.751L79.7899 395.751L94.2216 395.09L111.487 397.281L111.545 397.286L141.504 398.514L152.728 400.137L167.218 398.103L181.673 391.113L174.752 376.925L159.533 368.446L150.155 365.356L150.021 365.335C148.912 365.173 147.12 364.83 145.756 364.424C146.203 362.161 147.323 359.214 147.839 357.989L157.947 339.148L171.338 291.927L171.414 291.651L170.484 255.327L162.812 227.013L162.698 226.594L148.035 205.783L150.498 207.204L151.156 206.845C160.432 201.797 169.078 195.543 176.851 188.264L176.996 188.132L177.099 187.952C178.847 184.976 180.765 182.091 182.797 179.374C185.771 175.687 190.417 168.13 190.615 167.811L190.671 167.72L206.779 130.671L213.864 94.8312L213.933 94.4968L210.834 73.1862Z" fill="black"/>
</g>
<path d="M58.602 334.537L58.65 334.517C58.5643 333.151 58.4732 331.789 58.3976 330.428C58.3447 329.521 58.2832 328.274 58.2328 327.367C58.1798 326.416 58.1393 325.253 58.1281 324.299C58.1049 322.932 57.9481 321.583 57.7479 320.264C57.6421 319.591 57.5236 318.912 57.3536 318.27C57.3536 318.27 57.3272 318.275 57.3037 318.277C57.2774 318.282 57.2513 318.283 57.2513 318.283C56.9763 319.989 56.9359 321.774 57.0283 323.51C57.0974 324.539 57.2618 325.541 57.3707 326.558C57.6751 329.237 58.0682 331.956 58.5514 334.557C58.5514 334.557 58.5754 334.547 58.602 334.537Z" fill="white"/>
<path d="M87.1172 321.232C87.0792 320.966 86.9714 320.71 86.7102 320.581C86.2609 320.387 85.929 320.738 85.8705 321.144C85.4666 325.313 85.1242 329.742 84.9419 333.932C84.7795 337.979 84.6933 342.1 84.7563 346.169L84.7737 347.044L84.7786 347.156C84.7723 347.328 84.8285 347.481 84.8611 347.644C84.8688 347.774 84.873 347.898 84.8736 348.018C84.9252 347.794 85.0319 347.549 85.0538 347.308L85.0864 347.081L85.2101 346.222C85.3488 345.241 85.5283 343.763 85.6484 342.771C86.2349 337.59 86.6656 332.383 86.8216 327.143C86.8395 326.71 86.8578 326.141 86.879 325.522C86.9941 324.485 87.1127 323.453 87.2351 322.421L87.2442 322.333L87.2313 322.225C87.1883 321.914 87.1623 321.574 87.1175 321.228L87.1172 321.232Z" fill="white"/>
<path d="M77.3878 294.042C77.3546 292.317 77.472 290.61 77.3958 288.889L77.23 283.72C77.23 283.72 77.1978 283.707 77.1686 283.699C77.1364 283.687 77.1042 283.674 77.1042 283.674C77.0231 283.875 76.9518 284.078 76.8836 284.285C76.274 286.123 76.0804 288.173 76.0709 290.174C76.091 291.449 76.249 292.846 76.3548 294.123C76.6309 297.593 77.1263 301.031 77.5122 304.483L77.6413 304.472C77.6545 301.852 77.5152 299.246 77.4553 296.635C77.424 295.771 77.3995 294.904 77.3878 294.042Z" fill="white"/>
<path d="M66.9464 256.486C66.887 255.035 66.9469 253.407 66.9078 251.954C66.8676 250.453 66.7678 248.935 66.6629 247.434C66.5945 246.409 66.5293 245.397 66.3966 244.369C66.3966 244.369 66.3608 244.36 66.3208 244.356C66.281 244.346 66.241 244.342 66.241 244.342C65.4658 246.748 65.2188 249.358 65.26 251.935C65.3056 253.415 65.5385 255.068 65.6852 256.543C66.0361 260.018 66.8116 265.178 67.3057 268.687L67.4592 268.683C67.4264 266.645 67.3251 264.607 67.2316 262.575C67.1481 260.85 67.0067 258.195 66.9461 256.49L66.9464 256.486Z" fill="white"/>
<path d="M65.6141 214.779C65.9469 213.78 66.2523 212.756 66.5414 211.733C66.8771 210.521 67.2233 209.297 67.5121 208.062C67.6385 207.558 67.7551 207.057 67.8533 206.54L67.7423 206.456C66.4688 208.437 65.4755 210.748 64.692 213.159C64.2611 214.564 63.9129 216.204 63.5665 217.65C62.6394 221.619 61.9413 225.801 61.552 229.935L61.6757 229.968C61.7403 229.638 61.8049 229.308 61.8694 228.979L65.6141 214.779Z" fill="white"/>
<path d="M98.3785 188.126C97.6017 188.396 96.9973 189.172 96.4884 189.928C95.5007 191.462 94.7785 193.229 94.2837 195.104C94.0436 196.035 93.8313 196.97 93.6054 197.899C92.7137 201.588 92.0111 205.385 91.4722 209.188L91.6048 209.248C91.696 208.885 91.7868 208.531 91.881 208.177L98.336 188.432C98.3738 188.383 98.4085 188.328 98.446 188.283L98.3785 188.126Z" fill="white"/>
<path d="M103.746 266.147C104.061 264.853 104.497 263.604 104.658 262.252C104.833 260.883 104.945 259.521 104.832 258.11L104.701 258.068C104.378 258.66 104.131 259.275 103.904 259.9C103.469 261.145 103.109 262.421 102.938 263.772C102.853 264.445 102.781 265.12 102.675 265.787C102.283 268.377 101.891 271.215 101.589 273.82L101.723 273.867C102.087 272.587 102.426 271.304 102.769 270.018C103.023 269.058 103.513 267.114 103.746 266.147Z" fill="white"/>
<path d="M131.417 168.927C131.062 169.743 130.775 170.591 130.507 171.445C129.982 173.154 129.526 174.894 129.238 176.717C129.096 177.622 128.96 178.532 128.802 179.436C128.188 182.937 127.55 186.775 127.021 190.29L127.138 190.34C127.597 188.601 128.036 186.849 128.477 185.099C128.804 183.795 129.443 181.15 129.755 179.832C130.172 178.073 130.69 176.359 130.971 174.544C131.266 172.708 131.501 170.874 131.537 168.977L131.417 168.927Z" fill="white"/>
<path d="M127.976 98.4415C127.896 97.8933 127.819 97.3824 127.685 96.8325C127.626 96.5908 127.529 96.2662 127.384 96.056C127.175 95.7137 126.771 95.6158 126.488 95.8958C126.244 96.1343 126.13 96.4757 125.989 96.7769C125.843 103.704 126.528 110.659 127.948 117.305L128.261 118.709C128.369 119.196 128.543 119.695 128.669 120.161C128.677 119.9 128.725 119.657 128.752 119.374C128.805 118.579 128.81 117.769 128.834 116.971C128.93 110.775 128.811 104.553 127.976 98.4415Z" fill="white"/>
<path d="M112.262 129.523C112.879 132.035 113.619 134.561 114.471 136.954L114.601 136.896C114.375 135.609 114.145 134.326 113.937 133.036C113.794 132.183 113.614 131.006 113.476 130.145C113.328 129.25 113.186 128.151 113.096 127.24C112.955 125.94 112.639 124.683 112.269 123.461C112.074 122.836 111.858 122.203 111.584 121.622L111.448 121.652C111.214 123.301 111.298 125.024 111.559 126.668C111.734 127.643 112.033 128.573 112.262 129.523Z" fill="white"/>
<path d="M141.855 57.3967C142.173 56.2235 142.427 55.0471 142.463 53.782L142.336 53.7123C141.954 54.1653 141.645 54.6562 141.353 55.1576C140.79 56.1587 140.295 57.2099 139.985 58.3671C139.831 58.9395 139.686 59.5214 139.515 60.0875C138.852 62.2915 138.166 64.712 137.591 66.943L137.722 67.0131C138.217 65.9661 138.687 64.9036 139.162 63.8416C139.513 63.052 140.208 61.4422 140.539 60.6375C140.989 59.5684 141.553 58.5547 141.855 57.4009L141.855 57.3967Z" fill="white"/>
<path d="M155.004 91.2832C155.43 90.4189 155.942 89.6321 156.261 88.6516C156.599 87.6507 156.875 86.6338 156.99 85.4942L156.896 85.4021C156.563 85.719 156.284 86.0871 156.023 86.4755C155.509 87.2485 155.049 88.0865 154.725 89.0663C154.561 89.5516 154.412 90.0476 154.237 90.5225C153.563 92.3712 152.856 94.4097 152.252 96.3071L152.346 96.4037C152.808 95.5705 153.254 94.7175 153.7 93.8689C154.03 93.232 154.687 91.9352 155.004 91.2832Z" fill="white"/>
<path d="M156.678 128.447C157.04 127.987 157.405 127.536 157.765 127.11C158.253 126.54 158.97 125.745 159.431 125.158C159.959 124.514 160.496 123.767 160.988 123.075C161.626 122.184 162.247 121.265 162.826 120.303C162.94 120.108 163.057 119.91 163.164 119.706L163.073 119.574C161.337 120.691 159.781 122.211 158.392 123.897C157.608 124.888 156.84 126.123 156.116 127.177C154.146 130.095 152.293 133.251 150.695 136.493L150.809 136.593C151.176 136.047 151.543 135.501 151.914 134.956L156.678 128.447Z" fill="white"/>
<path d="M183.343 83.3885C183.332 82.9006 182.918 82.5354 182.556 82.7088C182.37 82.7881 182.231 83.0013 182.124 83.1541C181.997 83.3412 181.762 83.6994 181.634 83.8911C181.346 84.7802 181.051 85.6685 180.759 86.5571C179.689 88.8837 178.766 91.3055 177.941 93.7893C177.598 94.8188 177.279 95.8604 176.988 96.9145L176.914 97.1814C176.81 97.4676 176.807 97.8254 176.74 98.1068C176.817 97.9643 176.917 97.8107 177.009 97.6562C177.09 97.5739 177.175 97.4965 177.246 97.3992C177.467 97.0303 177.678 96.6509 177.889 96.2761C178.896 94.4564 179.816 92.5624 180.684 90.6392C181.621 88.5358 182.407 86.3368 183.191 84.1237C183.259 83.8974 183.352 83.665 183.343 83.3885ZM183.064 83.9941C183.064 83.9941 183.06 83.9982 183.06 84.0028C183.064 83.9986 183.068 83.9945 183.072 83.9904C183.072 83.9858 183.072 83.9904 183.064 83.9941Z" fill="white"/>
<path d="M172.163 42.4676C172.179 42.4211 172.199 42.3707 172.219 42.3246L172.12 42.203C171.962 42.3297 171.806 42.4742 171.666 42.6427C170.688 43.822 170.228 45.5723 169.97 47.2187C169.677 49.103 169.827 51.026 169.931 52.9215C170.125 56.6538 170.727 60.337 171.243 64.0145L171.377 64.0039C171.373 63.6646 171.362 63.3288 171.351 62.9931L172.162 42.472L172.163 42.4676Z" fill="white"/>
<path d="M161.245 150.502C160.785 150.702 160.379 150.98 159.986 151.273C159.215 151.875 158.492 152.553 157.896 153.429C157.601 153.858 157.316 154.302 157.005 154.721C155.813 156.343 154.54 158.148 153.415 159.846L153.511 159.977C154.234 159.299 154.941 158.597 155.652 157.899C156.179 157.377 157.233 156.3 157.748 155.758C158.439 155.036 159.21 154.426 159.796 153.553C160.404 152.665 160.955 151.739 161.338 150.633L161.245 150.502Z" fill="white"/>
<path d="M131.977 232.408C132.012 232.416 132.046 232.433 132.046 232.433C132.51 230.963 132.965 229.496 133.435 228.031C133.901 226.574 134.371 225.113 134.843 223.657C135.316 222.201 135.917 220.812 136.265 219.298C136.628 217.777 136.951 216.216 137.06 214.618L136.929 214.55C136.508 215.187 136.159 215.863 135.831 216.55C135.355 217.585 134.93 218.647 134.598 219.763C134.4 220.409 134.198 221.367 134.048 222.04C133.247 225.455 132.483 228.884 131.911 232.378L131.977 232.403L131.977 232.408Z" fill="white"/>
<path d="M127.545 296.487C127.568 296.096 127.591 295.709 127.611 295.322L130.666 266.189C130.696 266.06 130.726 265.935 130.756 265.81L130.662 265.72C129.505 267.736 128.728 270.244 128.209 272.805C127.678 275.373 127.555 278.069 127.441 280.721C127.212 285.888 127.418 291.314 127.435 296.483L127.545 296.487Z" fill="white"/>
<path d="M121.46 307.441C121.118 307.108 120.688 307.319 120.536 307.724C120.259 308.459 120.043 309.389 119.819 310.14C119.365 313.187 118.951 316.239 118.551 319.292C117.744 323.972 117.045 328.687 116.433 333.408C116.234 334.979 115.949 337.317 115.791 338.889L115.764 339.161C115.746 339.403 115.798 339.64 115.772 339.89C115.76 339.96 115.753 340.026 115.741 340.095C115.823 339.821 115.965 339.535 116.022 339.24L116.089 338.972L116.346 337.914C118.491 328.727 120.203 319.361 121.493 309.918C121.556 309.464 121.621 308.987 121.667 308.518C121.703 308.153 121.744 307.718 121.46 307.441ZM121.546 308.406C121.546 308.406 121.546 308.406 121.55 308.402C121.55 308.402 121.55 308.397 121.546 308.406Z" fill="white"/>
<path d="M104.167 364.125L99.75 329.919C99.735 329.613 99.7201 329.307 99.6981 328.996L99.6291 328.984L99.5563 328.975C99.3949 329.719 99.2655 330.48 99.1362 331.241C98.6757 334.687 98.6123 338.242 99.0227 341.727C99.2195 343.488 99.6335 345.733 99.9383 347.467C101.032 353.423 102.684 359.481 104.242 365.278C104.242 365.278 104.28 365.269 104.313 365.259L104.384 365.236C104.325 364.934 104.249 364.548 104.167 364.125Z" fill="white"/>
<path d="M107.253 283.368C106.982 284.869 106.823 286.592 106.642 288.117C106.162 292.306 105.922 296.653 105.968 300.89L106.102 300.901C106.137 300.482 106.175 300.059 106.214 299.636L108.194 285.79C108.438 284.625 108.688 283.416 108.856 282.282C109.106 280.734 109.336 279.166 109.51 277.596C109.572 277.064 109.627 276.532 109.659 275.992L109.534 275.933C108.486 278.225 107.756 280.772 107.253 283.368Z" fill="white"/>
<path d="M58.1398 370.036C58.0029 368.66 57.9618 367.246 57.7007 365.908C57.441 364.548 57.1364 363.228 56.6592 361.998L56.5494 362.033C56.486 362.77 56.4805 363.488 56.4954 364.194C56.5284 365.603 56.6304 366.993 56.8881 368.339C57.0157 369.01 57.1551 369.673 57.2683 370.346C57.7145 372.964 58.2321 375.812 58.7486 378.389L58.8587 378.349C58.7625 376.955 58.6433 375.568 58.5269 374.18C58.4378 373.146 58.2432 371.067 58.1398 370.036Z" fill="white"/>
<path d="M95.2102 228.163L95.1507 228.117C94.9938 228.316 94.8433 228.525 94.6927 228.734C93.373 230.601 92.2761 232.734 91.3902 234.978C90.838 236.429 90.3672 238.138 89.9225 239.642C88.7209 243.779 87.8008 248.18 87.2699 252.543L87.4022 252.585C87.4588 252.33 87.515 252.08 87.5713 251.829L93.3194 234.023C93.9179 232.372 94.5078 230.695 95.036 229.005C95.1171 228.745 95.1947 228.484 95.266 228.213L95.2065 228.167L95.2102 228.163Z" fill="white"/>
<path d="M114.14 241.655C114.078 241.299 113.977 240.978 113.89 240.641C113.89 240.641 113.88 240.644 113.877 240.648C113.775 240.217 113.677 239.786 113.583 239.346L109.452 217.301C109.461 217.271 109.466 217.241 109.474 217.216L109.378 217.094C109.186 217.292 109.11 217.61 109.047 217.903C108.615 220.472 109.241 224.591 109.853 227.104C111.088 231.984 112.3 237.028 113.897 241.719C113.905 241.738 113.911 241.752 113.929 241.785L113.942 241.804C113.964 241.824 113.944 241.822 114.005 241.851C114.057 241.888 114.147 241.771 114.134 241.76C114.142 241.735 114.144 241.713 114.144 241.713C114.146 241.673 114.143 241.669 114.14 241.655ZM113.919 241.678L113.919 241.682C113.919 241.687 113.918 241.695 113.919 241.678Z" fill="white"/>
<path d="M141.762 242.797C141.474 243.235 141.249 243.698 141.041 244.175C140.641 245.122 140.306 246.106 140.134 247.172C140.045 247.701 139.97 248.239 139.869 248.758C139.475 250.801 139.081 253.031 138.768 255.092L138.883 255.147C139.221 254.163 139.539 253.168 139.856 252.178C140.095 251.437 140.555 249.933 140.776 249.182C141.072 248.18 141.47 247.228 141.636 246.162C141.819 245.076 141.938 243.991 141.874 242.852L141.762 242.797Z" fill="white"/>
<path d="M129.805 355.561C129.452 355.538 129.141 355.588 128.842 355.653C128.262 355.8 127.713 356.019 127.268 356.431C126.622 357.046 125.907 357.568 125.245 358.167C124.804 358.561 124.357 358.954 123.925 359.372L124.002 359.496C125.09 359.055 126.16 358.567 127.205 358.032C127.725 357.77 128.313 357.619 128.751 357.206C129.221 356.786 129.616 356.319 129.881 355.689L129.805 355.561Z" fill="white"/>
<path d="M52.7058 284.118C52.6493 282.757 52.695 281.365 52.5002 280.026C52.3101 278.659 52.0688 277.334 51.6406 276.081L51.5205 276.105C51.4053 276.819 51.3546 277.521 51.3227 278.216C51.2712 279.602 51.2906 280.973 51.4819 282.321C51.5734 282.988 51.68 283.656 51.7588 284.33C52.0671 286.942 52.4376 289.789 52.824 292.367L52.9441 292.343C52.928 290.968 52.8905 289.595 52.8559 288.222C52.8279 287.202 52.7519 285.14 52.7058 284.118Z" fill="white"/>
<path d="M112.881 166.646C112.88 167.269 112.887 167.889 112.876 168.511C112.838 170.931 112.819 173.569 112.832 175.977L112.909 175.977C113.024 174.739 113.124 173.495 113.225 172.255C113.299 171.329 113.438 169.457 113.501 168.529C113.588 167.292 113.74 166.054 113.737 164.807C113.741 163.528 113.705 162.287 113.544 161.067L113.467 161.062C113.327 161.683 113.233 162.3 113.15 162.923C112.992 164.151 112.881 165.394 112.881 166.646Z" fill="white"/>
</svg>
