<svg width="30" height="20" viewBox="0 0 30 20" fill="none" xmlns="http://www.w3.org/2000/svg">
<path d="M29.6785 8.9125C28.0248 6.355 25.8792 4.1825 23.4742 2.62938C20.8136 0.909375 17.8761 0 14.9799 0C12.3224 0 9.7093 0.759375 7.21307 2.25688C4.66746 3.78375 2.36123 6.01437 0.358119 8.88625C0.131986 9.21082 0.00744578 9.59528 0.000323518 9.99079C-0.00679874 10.3863 0.103819 10.775 0.318119 11.1075C1.96873 13.6906 4.09309 15.8662 6.46058 17.3981C9.12618 19.125 11.9949 20 14.9799 20C17.8992 20 20.843 19.0981 23.4923 17.3925C25.8961 15.8444 28.0373 13.6637 29.6848 11.085C29.8917 10.7602 30.0011 10.3829 30 9.99783C29.9989 9.61275 29.8873 9.23607 29.6785 8.9125ZM15.0011 16C13.8145 16 12.6544 15.6481 11.6677 14.9888C10.6811 14.3295 9.91203 13.3925 9.4579 12.2961C9.00378 11.1997 8.88496 9.99334 9.11647 8.82946C9.34798 7.66557 9.91942 6.59647 10.7585 5.75736C11.5976 4.91824 12.6667 4.3468 13.8306 4.11529C14.9945 3.88378 16.2009 4.0026 17.2972 4.45672C18.3936 4.91085 19.3306 5.67988 19.9899 6.66658C20.6492 7.65327 21.0011 8.81331 21.0011 10C20.9993 11.5907 20.3666 13.1158 19.2417 14.2406C18.1169 15.3655 16.5919 15.9982 15.0011 16Z" fill="#4A4A4A"/>
</svg>
